<svg width="602" height="602" viewBox="0 0 602 602" fill="none" xmlns="http://www.w3.org/2000/svg">
<circle cx="301" cy="301" r="300.5" fill="white" stroke="#023279"/>
<mask id="mask0_163_351" style="mask-type:alpha" maskUnits="userSpaceOnUse" x="23" y="329" width="561" height="125">
<rect x="23" y="329" width="561" height="125" fill="#D9D9D9"/>
</mask>
<g mask="url(#mask0_163_351)">
<path d="M87.1672 165H183.167V213H106.367L105.167 215.4L169.167 332.2C182.234 355.667 188.767 373.533 188.767 385.8C188.767 412.733 179.834 432.467 161.967 445H55.9672V398.6H138.767L139.967 396.2L67.9672 267C57.5672 248.333 52.3672 233.133 52.3672 221.4C52.3672 193.667 63.9672 174.867 87.1672 165ZM271.445 445H216.645V165H271.445V277.8H335.445V165H390.245V445H335.445V329H271.445V445ZM454.355 165H550.355V213H473.555L472.355 215.4L536.355 332.2C549.421 355.667 555.955 373.533 555.955 385.8C555.955 412.733 547.021 432.467 529.155 445H423.155V398.6H505.955L507.155 396.2L435.155 267C424.755 248.333 419.555 233.133 419.555 221.4C419.555 193.667 431.155 174.867 454.355 165Z" fill="#023279"/>
</g>
<mask id="mask1_163_351" style="mask-type:alpha" maskUnits="userSpaceOnUse" x="22" y="148" width="561" height="129">
<rect x="22" y="148" width="561" height="129" fill="#FFA8A7"/>
</mask>
<g mask="url(#mask1_163_351)">
<path d="M87.1671 165H183.167V213H106.367L105.167 215.4L169.167 332.2C182.234 355.667 188.767 373.533 188.767 385.8C188.767 412.733 179.834 432.467 161.967 445H55.9671V398.6H138.767L139.967 396.2L67.9671 267C57.5671 248.333 52.3671 233.133 52.3671 221.4C52.3671 193.667 63.9671 174.867 87.1671 165ZM271.445 445H216.645V165H271.445V277.8H335.445V165H390.245V445H335.445V329H271.445V445ZM454.355 165H550.355V213H473.555L472.355 215.4L536.355 332.2C549.421 355.667 555.955 373.533 555.955 385.8C555.955 412.733 547.021 432.467 529.155 445H423.155V398.6H505.955L507.155 396.2L435.155 267C424.755 248.333 419.555 233.133 419.555 221.4C419.555 193.667 431.155 174.867 454.355 165Z" fill="#D00000"/>
</g>
<path d="M92.3628 288H101.963V292.8H94.2828L94.1628 293.04L100.563 304.72C101.869 307.067 102.523 308.853 102.523 310.08C102.523 312.773 101.629 314.747 99.8428 316H89.2428V311.36H97.5228L97.6428 311.12L90.4428 298.2C89.4028 296.333 88.8828 294.813 88.8828 293.64C88.8828 290.867 90.0428 288.987 92.3628 288ZM109.831 292.8H103.791V288H121.311V292.8H115.271V316H109.831V292.8ZM123.631 316V288H137.991V292.8H129.111V299.48H137.031V304.12H129.111V311.36H138.151V316H123.631ZM141.248 316V288H146.728V311.36H155.048V316H141.248ZM157.772 316V288H163.252V311.36H171.572V316H157.772ZM186.215 316L185.375 311.56H179.055L178.215 316H172.775L178.175 288H186.455L191.575 316H186.215ZM182.135 293.2L180.575 302.52L179.695 307.28H184.695L183.775 302.52L182.215 293.2H182.135ZM193.904 288H204.544C206.224 288.56 207.651 289.6 208.824 291.12C210.024 292.613 210.624 294.453 210.624 296.64C210.624 300.213 209.211 302.84 206.384 304.52L210.424 316H204.824L201.424 305.8H199.304V316H193.904V288ZM199.304 292.8V301.32H202.744C203.198 301.213 203.691 300.76 204.224 299.96C204.784 299.133 205.064 298.173 205.064 297.08C205.064 295.987 204.824 295.027 204.344 294.2C203.891 293.373 203.438 292.907 202.984 292.8H199.304ZM225.4 316H219.92V288H225.4V299.28H231.8V288H237.28V316H231.8V304.4H225.4V316ZM254.171 288C256.038 289.52 257.424 291.56 258.331 294.12C259.238 296.68 259.691 299.32 259.691 302.04C259.691 304.733 259.251 307.293 258.371 309.72C257.491 312.147 256.091 314.24 254.171 316H245.931C244.011 314.24 242.611 312.147 241.731 309.72C240.851 307.293 240.411 304.733 240.411 302.04C240.411 299.32 240.864 296.68 241.771 294.12C242.678 291.56 244.064 289.52 245.931 288H254.171ZM248.611 311.36H251.491C252.158 310.587 252.718 309.333 253.171 307.6C253.651 305.84 253.891 303.987 253.891 302.04C253.891 300.093 253.664 298.267 253.211 296.56C252.758 294.827 252.198 293.573 251.531 292.8H248.611C247.944 293.573 247.371 294.827 246.891 296.56C246.438 298.267 246.211 300.093 246.211 302.04C246.211 303.987 246.438 305.84 246.891 307.6C247.371 309.333 247.944 310.587 248.611 311.36ZM262.811 288H273.451C275.131 288.56 276.557 289.6 277.731 291.12C278.931 292.613 279.531 294.453 279.531 296.64C279.531 300.213 278.117 302.84 275.291 304.52L279.331 316H273.731L270.331 305.8H268.211V316H262.811V288ZM268.211 292.8V301.32H271.651C272.104 301.213 272.597 300.76 273.131 299.96C273.691 299.133 273.971 298.173 273.971 297.08C273.971 295.987 273.731 295.027 273.251 294.2C272.797 293.373 272.344 292.907 271.891 292.8H268.211ZM282.42 316V288H287.9V316H282.42ZM306.076 292.68L296.596 311.36H306.116V316H290.796V311.44L300.236 292.8H290.796V288H306.076V292.68ZM321.476 288C323.342 289.52 324.729 291.56 325.636 294.12C326.542 296.68 326.996 299.32 326.996 302.04C326.996 304.733 326.556 307.293 325.676 309.72C324.796 312.147 323.396 314.24 321.476 316H313.236C311.316 314.24 309.916 312.147 309.036 309.72C308.156 307.293 307.716 304.733 307.716 302.04C307.716 299.32 308.169 296.68 309.076 294.12C309.982 291.56 311.369 289.52 313.236 288H321.476ZM315.916 311.36H318.796C319.462 310.587 320.022 309.333 320.476 307.6C320.956 305.84 321.196 303.987 321.196 302.04C321.196 300.093 320.969 298.267 320.516 296.56C320.062 294.827 319.502 293.573 318.836 292.8H315.916C315.249 293.573 314.676 294.827 314.196 296.56C313.742 298.267 313.516 300.093 313.516 302.04C313.516 303.987 313.742 305.84 314.196 307.6C314.676 309.333 315.249 310.587 315.916 311.36ZM342.595 316L335.115 300.52L334.915 300.6L335.155 305.32V316H330.115V288H334.155L341.515 304.08L341.715 304L341.275 299.08V288H346.315V316H342.595ZM359.121 288H368.721V292.8H361.041L360.921 293.04L367.321 304.72C368.627 307.067 369.281 308.853 369.281 310.08C369.281 312.773 368.387 314.747 366.601 316H356.001V311.36H364.281L364.401 311.12L357.201 298.2C356.161 296.333 355.641 294.813 355.641 293.64C355.641 290.867 356.801 288.987 359.121 288ZM384.523 288C386.389 289.52 387.776 291.56 388.683 294.12C389.589 296.68 390.043 299.32 390.043 302.04C390.043 304.733 389.603 307.293 388.723 309.72C387.843 312.147 386.443 314.24 384.523 316H376.283C374.363 314.24 372.963 312.147 372.083 309.72C371.203 307.293 370.763 304.733 370.763 302.04C370.763 299.32 371.216 296.68 372.123 294.12C373.029 291.56 374.416 289.52 376.283 288H384.523ZM378.963 311.36H381.843C382.509 310.587 383.069 309.333 383.523 307.6C384.003 305.84 384.243 303.987 384.243 302.04C384.243 300.093 384.016 298.267 383.563 296.56C383.109 294.827 382.549 293.573 381.883 292.8H378.963C378.296 293.573 377.723 294.827 377.243 296.56C376.789 298.267 376.563 300.093 376.563 302.04C376.563 303.987 376.789 305.84 377.243 307.6C377.723 309.333 378.296 310.587 378.963 311.36ZM393.162 316V288H398.642V311.36H406.962V316H393.162ZM416.02 311.36H419.38C419.966 310.72 420.38 310.08 420.62 309.44C420.886 308.773 421.02 307.8 421.02 306.52V288H426.5V304.52C426.5 305.88 426.46 306.947 426.38 307.72C426.326 308.467 426.166 309.387 425.9 310.48C425.446 312.427 424.193 314.267 422.14 316H413.26C411.206 314.32 409.953 312.48 409.5 310.48C409.1 308.853 408.9 306.867 408.9 304.52V288H414.38V306.52C414.38 307.8 414.5 308.773 414.74 309.44C415.006 310.08 415.433 310.72 416.02 311.36ZM434.674 292.8H428.634V288H446.154V292.8H440.114V316H434.674V292.8ZM448.475 316V288H453.955V316H448.475ZM470.851 288C472.717 289.52 474.104 291.56 475.011 294.12C475.917 296.68 476.371 299.32 476.371 302.04C476.371 304.733 475.931 307.293 475.051 309.72C474.171 312.147 472.771 314.24 470.851 316H462.611C460.691 314.24 459.291 312.147 458.411 309.72C457.531 307.293 457.091 304.733 457.091 302.04C457.091 299.32 457.544 296.68 458.451 294.12C459.357 291.56 460.744 289.52 462.611 288H470.851ZM465.291 311.36H468.171C468.837 310.587 469.397 309.333 469.851 307.6C470.331 305.84 470.571 303.987 470.571 302.04C470.571 300.093 470.344 298.267 469.891 296.56C469.437 294.827 468.877 293.573 468.211 292.8H465.291C464.624 293.573 464.051 294.827 463.571 296.56C463.117 298.267 462.891 300.093 462.891 302.04C462.891 303.987 463.117 305.84 463.571 307.6C464.051 309.333 464.624 310.587 465.291 311.36ZM491.97 316L484.49 300.52L484.29 300.6L484.53 305.32V316H479.49V288H483.53L490.89 304.08L491.09 304L490.65 299.08V288H495.69V316H491.97ZM502.089 288H511.689V292.8H504.009L503.889 293.04L510.289 304.72C511.596 307.067 512.249 308.853 512.249 310.08C512.249 312.773 511.356 314.747 509.569 316H498.969V311.36H507.249L507.369 311.12L500.169 298.2C499.129 296.333 498.609 294.813 498.609 293.64C498.609 290.867 499.769 288.987 502.089 288Z" fill="#5790DF"/>
</svg>
